<svg xmlns:xlink="http://www.w3.org/1999/xlink" width="43" fill="" height="23" xmlns="http://www.w3.org/2000/svg" class="Shared-module--logo--27w86"><path d="M13.967.816a2.53 2.53 0 011.788 4.32 2.529 2.529 0 11-3.577-3.577 2.529 2.529 0 011.789-.743zm0 0a2.53 2.53 0 011.788 4.32 2.529 2.529 0 11-3.577-3.577 2.529 2.529 0 011.789-.743zm-2.529 5.905h5.057V22.53h-5.057V6.72zM3.918 6.733V14.2c0 3.508-2.367 3.362-2.718 3.362-.153 0-.305-.01-.457-.032l-.464 4.93c.392.048.785.071 1.18.07 3.508 0 7.6-1.812 7.6-7.6V6.734H3.918zM38.471 22.53v-7.464c0-3.508 2.368-3.361 2.718-3.361.152 0 .303.01.453.031l.464-4.93a9.807 9.807 0 00-1.18-.07c-3.508 0-7.6 1.812-7.6 7.6v8.196l5.145-.002zM30.078 15.01c-.789-.996-1.958-1.522-2.84-1.805l-2.075-.76a4.048 4.048 0 01-.146-.043c-.754-.24-.936-.622-.936-.952 0-.33.264-.848 1.053-.848.438 0 1.17.176 1.49 1.345h.016l3.902-1.1c-.548-2.466-2.686-4.1-5.613-4.1-3.07 0-5.73 1.696-5.73 4.619 0 .904.229 1.745.726 2.475.578.853 1.517 1.554 2.87 2.027l1.844.679.377.139c.79.234.965.643.965.964 0 .643-.585.965-1.286.965-1.344 0-1.695-1.022-1.902-1.548l-3.97 1.118c.482 2.955 2.843 4.346 5.957 4.346 3.537 0 6.168-1.812 6.168-4.881.003-1.128-.351-1.985-.87-2.64z" fill="#2353F5"></path></svg>